<?xml version="1.0" encoding="UTF-8" standalone="no"?>
<!-- Created with Inkscape (http://www.inkscape.org/) -->

<svg
   width="100mm"
   height="100mm"
   viewBox="0 0 100 100"
   version="1.1"
   id="svg1"
   xml:space="preserve"
   inkscape:version="1.3.2 (091e20e, 2023-11-25, custom)"
   sodipodi:docname="ship_2D.svg"
   xmlns:inkscape="http://www.inkscape.org/namespaces/inkscape"
   xmlns:sodipodi="http://sodipodi.sourceforge.net/DTD/sodipodi-0.dtd"
   xmlns="http://www.w3.org/2000/svg"
   xmlns:svg="http://www.w3.org/2000/svg"><sodipodi:namedview
     id="namedview1"
     pagecolor="#ffffff"
     bordercolor="#000000"
     borderopacity="0.25"
     inkscape:showpageshadow="2"
     inkscape:pageopacity="0.0"
     inkscape:pagecheckerboard="0"
     inkscape:deskcolor="#d1d1d1"
     inkscape:document-units="mm"
     inkscape:zoom="1.5340488"
     inkscape:cx="261.7257"
     inkscape:cy="275.41496"
     inkscape:window-width="1920"
     inkscape:window-height="1057"
     inkscape:window-x="-8"
     inkscape:window-y="-8"
     inkscape:window-maximized="1"
     inkscape:current-layer="layer1" /><defs
     id="defs1"><marker
       id="DistanceX"
       orient="auto"
       refX="0.0"
       refY="0.0"
       style="overflow:visible"><path
         d="M 3,-3 L -3,3 M 0,-5 L  0,5"
         style="stroke:#000000; stroke-width:0.5"
         id="path1" /></marker><pattern
       id="Hatch"
       patternUnits="userSpaceOnUse"
       width="8"
       height="8"
       x="0"
       y="0"><path
         d="M8 4 l-4,4"
         stroke="#000000"
         stroke-width="0.25"
         linecap="square"
         id="path2" /><path
         d="M6 2 l-4,4"
         stroke="#000000"
         stroke-width="0.25"
         linecap="square"
         id="path3" /><path
         d="M4 0 l-4,4"
         stroke="#000000"
         stroke-width="0.25"
         linecap="square"
         id="path4" /></pattern><symbol
       id="*MODEL_SPACE" /><symbol
       id="*PAPER_SPACE" /></defs><g
     inkscape:label="Layer 1"
     inkscape:groupmode="layer"
     id="layer1"><path
       d="m 10,35.000003 v -1.500002 a 1.5,1.5 0 0 1 3,0 1.4999999,1.4999999 0 0 0 1.5,1.500002 h 1 A 1.4999999,1.4999999 0 0 0 17,33.500001 L 18.55,11.500002 A 1.4999999,1.4999999 0 0 1 20.05,10 h 27.4 a 1.4999999,1.4999999 0 0 1 1.5,1.500002 l 1.55,21.999999 a 1.4999999,1.4999999 0 0 0 1.5,1.500002 h 1 a 1.4999999,1.4999999 0 0 0 1.5,-1.500002 1.5,1.5 0 0 1 3,0 v 1.500002 L 53.858942,57.775918 A 11.25,11.25 0 0 1 42.75,67.249986 h -18 A 11.25,11.25 0 0 1 13.641058,57.775918 Z"
       style="fill:none;stroke:#000000;stroke-width:0.1;stroke-dasharray:none"
       id="path5" /><path
       d="m 36.75,17.999995 a 3,3 0 0 0 -6,0 3,3 0 0 0 6,0 z"
       style="fill:none;stroke:#000000;stroke-width:0.1;stroke-dasharray:none"
       id="path9" /></g></svg>
